<svg width="61" height="53" viewBox="0 0 61 53" fill="none" xmlns="http://www.w3.org/2000/svg">
<path d="M56.75 15H4.25C2.17895 15 0.5 13.3211 0.5 11.25V3.75C0.5 1.67895 2.17895 0 4.25 0H56.75C58.8211 0 60.5 1.67895 60.5 3.75V11.25C60.5 13.3211 58.8211 15 56.75 15ZM51.125 4.6875C49.5717 4.6875 48.3125 5.94668 48.3125 7.5C48.3125 9.05332 49.5717 10.3125 51.125 10.3125C52.6783 10.3125 53.9375 9.05332 53.9375 7.5C53.9375 5.94668 52.6783 4.6875 51.125 4.6875ZM43.625 4.6875C42.0717 4.6875 40.8125 5.94668 40.8125 7.5C40.8125 9.05332 42.0717 10.3125 43.625 10.3125C45.1783 10.3125 46.4375 9.05332 46.4375 7.5C46.4375 5.94668 45.1783 4.6875 43.625 4.6875ZM56.75 33.75H4.25C2.17895 33.75 0.5 32.0711 0.5 30V22.5C0.5 20.4289 2.17895 18.75 4.25 18.75H56.75C58.8211 18.75 60.5 20.4289 60.5 22.5V30C60.5 32.0711 58.8211 33.75 56.75 33.75ZM51.125 23.4375C49.5717 23.4375 48.3125 24.6967 48.3125 26.25C48.3125 27.8033 49.5717 29.0625 51.125 29.0625C52.6783 29.0625 53.9375 27.8033 53.9375 26.25C53.9375 24.6967 52.6783 23.4375 51.125 23.4375ZM43.625 23.4375C42.0717 23.4375 40.8125 24.6967 40.8125 26.25C40.8125 27.8033 42.0717 29.0625 43.625 29.0625C45.1783 29.0625 46.4375 27.8033 46.4375 26.25C46.4375 24.6967 45.1783 23.4375 43.625 23.4375ZM56.75 52.5H4.25C2.17895 52.5 0.5 50.8211 0.5 48.75V41.25C0.5 39.1789 2.17895 37.5 4.25 37.5H56.75C58.8211 37.5 60.5 39.1789 60.5 41.25V48.75C60.5 50.8211 58.8211 52.5 56.75 52.5ZM51.125 42.1875C49.5717 42.1875 48.3125 43.4467 48.3125 45C48.3125 46.5533 49.5717 47.8125 51.125 47.8125C52.6783 47.8125 53.9375 46.5533 53.9375 45C53.9375 43.4467 52.6783 42.1875 51.125 42.1875ZM43.625 42.1875C42.0717 42.1875 40.8125 43.4467 40.8125 45C40.8125 46.5533 42.0717 47.8125 43.625 47.8125C45.1783 47.8125 46.4375 46.5533 46.4375 45C46.4375 43.4467 45.1783 42.1875 43.625 42.1875Z" fill="white"/>
</svg>
