<svg width="16" height="13" viewBox="0 0 16 13" fill="none" xmlns="http://www.w3.org/2000/svg">
<path d="M15.6969 4.46494C15.8187 4.36807 16 4.45869 16 4.61182V11.0024C16 11.8306 15.3281 12.5024 14.5 12.5024H1.5C0.671875 12.5024 0 11.8306 0 11.0024V4.61494C0 4.45869 0.178125 4.37119 0.303125 4.46807C1.00312 5.01182 1.93125 5.70244 5.11875 8.01807C5.77813 8.49932 6.89062 9.51182 8 9.50557C9.11563 9.51494 10.25 8.48057 10.8844 8.01807C14.0719 5.70244 14.9969 5.00869 15.6969 4.46494ZM8 8.50244C8.725 8.51494 9.76875 7.58994 10.2937 7.20869C14.4406 4.19932 14.7562 3.93682 15.7125 3.18682C15.8937 3.04619 16 2.82744 16 2.59619V2.00244C16 1.17432 15.3281 0.502441 14.5 0.502441H1.5C0.671875 0.502441 0 1.17432 0 2.00244V2.59619C0 2.82744 0.10625 3.04307 0.2875 3.18682C1.24375 3.93369 1.55938 4.19932 5.70625 7.20869C6.23125 7.58994 7.275 8.51494 8 8.50244Z" fill="white"/>
</svg>
