<svg width="16" height="17" viewBox="0 0 16 17" fill="none" xmlns="http://www.w3.org/2000/svg">
<path d="M15.5437 11.8086L12.0436 10.3086C11.8941 10.2449 11.728 10.2314 11.5701 10.2703C11.4123 10.3092 11.2714 10.3983 11.1686 10.5242L9.61861 12.418C7.18598 11.271 5.22828 9.31333 4.08132 6.88071L5.9751 5.33068C6.10126 5.22808 6.19054 5.08717 6.22945 4.92928C6.26836 4.7714 6.25477 4.60513 6.19073 4.45567L4.69071 0.955603C4.62043 0.794478 4.49613 0.662925 4.33925 0.583628C4.18236 0.504331 4.00273 0.48226 3.83132 0.521221L0.58126 1.27123C0.415998 1.3094 0.26855 1.40245 0.162983 1.5352C0.0574151 1.66796 -3.80697e-05 1.83257 1.8926e-08 2.00218C1.8926e-08 10.0179 6.49699 16.5024 14.5003 16.5024C14.6699 16.5025 14.8346 16.4451 14.9674 16.3396C15.1002 16.234 15.1933 16.0865 15.2315 15.9212L15.9815 12.6711C16.0202 12.4989 15.9977 12.3185 15.9178 12.1611C15.8379 12.0037 15.7056 11.879 15.5437 11.8086Z" fill="white"/>
</svg>
