<svg width="61" height="60" viewBox="0 0 61 60" fill="none" xmlns="http://www.w3.org/2000/svg">
<path d="M59.2252 46.3685L45.5034 32.6466C42.7965 29.9397 38.7537 29.4124 35.4961 31.0178L23.0046 18.5263V11.2494L8.00544 0L0.505859 7.49958L11.7552 22.4987H19.0322L31.5237 34.9902C29.93 38.2479 30.4456 42.2906 33.1525 44.9975L46.8744 58.7194C48.5852 60.4302 51.3507 60.4302 53.0498 58.7194L59.2252 52.5439C60.9244 50.8331 60.9244 48.0676 59.2252 46.3685ZM39.3748 26.3657C42.691 26.3657 45.808 27.6547 48.1516 29.9983L50.425 32.2716C52.2764 31.4631 54.0341 30.3382 55.5575 28.8148C59.9049 24.4674 61.3814 18.3505 59.9986 12.7962C59.7408 11.7415 58.4167 11.3783 57.6433 12.1517L48.925 20.8699L40.9684 19.5458L39.6443 11.5892L48.3626 2.87093C49.136 2.09754 48.761 0.773394 47.6946 0.503878C42.1403 -0.867139 36.0234 0.609341 31.6877 4.94504C28.3481 8.28469 26.7778 12.6907 26.8599 17.085L36.4804 26.7055C37.4296 26.4829 38.4139 26.3657 39.3748 26.3657ZM27.1997 35.9746L20.5555 29.3304L2.69714 47.2005C-0.232381 50.13 -0.232381 54.8758 2.69714 57.8054C5.62667 60.7349 10.3725 60.7349 13.302 57.8054L27.7856 43.3218C26.895 40.9899 26.6255 38.4471 27.1997 35.9746ZM8.00544 55.3094C6.45865 55.3094 5.1931 54.0439 5.1931 52.4971C5.1931 50.9386 6.44693 49.6847 8.00544 49.6847C9.56395 49.6847 10.8178 50.9386 10.8178 52.4971C10.8178 54.0439 9.56395 55.3094 8.00544 55.3094Z" fill="white"/>
</svg>
